<svg width="33" height="33" viewBox="0 0 33 33" fill="none" xmlns="http://www.w3.org/2000/svg">
<path d="M16.5 0C7.38705 0 0 7.38705 0 16.5C0 25.6129 7.38705 33 16.5 33C25.6129 33 33 25.6129 33 16.5C33 7.38705 25.6129 0 16.5 0ZM25.9166 12.7165L14.3665 24.2666C14.0448 24.5883 13.6224 24.75 13.2 24.75C12.7776 24.75 12.3552 24.5883 12.0335 24.2666L7.08345 19.3165C6.4383 18.6714 6.4383 17.6286 7.08345 16.9834C7.7286 16.3383 8.7714 16.3383 9.41655 16.9834L13.2 20.7669L23.5834 10.3835C24.2286 9.7383 25.2714 9.7383 25.9166 10.3835C26.5617 11.0286 26.5617 12.0714 25.9166 12.7165Z" fill="url(#paint0_linear_2715_1068)"/>
<defs>
<linearGradient id="paint0_linear_2715_1068" x1="31.8678" y1="34.0075" x2="12.0185" y2="-5.89728" gradientUnits="userSpaceOnUse">
<stop stop-color="#88CB1A"/>
<stop offset="1" stop-color="#F2FF5B"/>
</linearGradient>
</defs>
</svg>
