<svg width="55" height="53" viewBox="0 0 55 53" fill="none" xmlns="http://www.w3.org/2000/svg">
<path d="M36.7189 47.3958C35.9187 47.3958 35.2083 46.8784 34.9637 46.1163L31.3659 34.9259L20.1756 31.3282C19.4135 31.0836 18.896 30.3731 18.896 29.5729C18.896 28.7727 19.4135 28.0623 20.1756 27.8177L31.3659 24.2199L34.9637 13.0296C35.2083 12.2675 35.9187 11.75 36.7189 11.75C37.5191 11.75 38.2296 12.2675 38.4742 13.0296L42.0719 24.2199L53.2623 27.8177C54.0243 28.0623 54.5418 28.7727 54.5418 29.5729C54.5418 30.3731 54.0243 31.0836 53.2623 31.3282L42.0719 34.9259L38.4742 46.1163C38.2296 46.8784 37.5191 47.3958 36.7189 47.3958ZM12.7502 25.2708C11.9561 25.2708 11.2518 24.7632 11.0011 24.0109L8.68039 17.0489L1.71839 14.7283C0.966142 14.4775 0.458496 13.7732 0.458496 12.9792C0.458496 12.1851 0.966142 11.4808 1.71839 11.2301L8.68039 8.9094L11.0011 1.9474C11.2518 1.19515 11.9561 0.6875 12.7502 0.6875C13.5442 0.6875 14.2485 1.19515 14.4993 1.9474L16.8199 8.9094L23.7819 11.2301C24.5342 11.4808 25.0418 12.1851 25.0418 12.9792C25.0418 13.7732 24.5342 14.4775 23.7819 14.7283L16.8199 17.0489L14.4993 24.0109C14.2485 24.7632 13.5442 25.2708 12.7502 25.2708ZM10.9064 52.3125C10.1124 52.3125 9.40806 51.8049 9.15731 51.0526L7.29635 45.4734L1.71839 43.6137C0.966142 43.3629 0.458496 42.6586 0.458496 41.8646C0.458496 41.0705 0.966142 40.3662 1.71839 40.1155L7.29635 38.2557L9.15731 32.6766C9.40806 31.9243 10.1124 31.4167 10.9064 31.4167C11.7005 31.4167 12.4048 31.9243 12.6555 32.6766L14.5152 38.2557L20.0944 40.1155C20.8467 40.3662 21.3543 41.0705 21.3543 41.8646C21.3543 42.6586 20.8467 43.3629 20.0944 43.6137L14.5152 45.4734L12.6555 51.0526C12.4048 51.8049 11.7005 52.3125 10.9064 52.3125Z" fill="#ECFFB1"/>
</svg>
