<svg width="25" height="26" viewBox="0 0 25 26" fill="none" xmlns="http://www.w3.org/2000/svg">
<path d="M11.9353 3.54257L12.8306 5.65455C13.2207 6.57487 13.0046 7.65716 12.2952 8.33007L10.6223 9.91757C10.4337 10.0967 10.3358 10.3566 10.378 10.6129C10.5395 11.5926 10.8973 12.5587 11.4515 13.5118C12.0046 14.4629 12.678 15.2723 13.4723 15.9394C13.6827 16.116 13.9749 16.1618 14.2353 16.0749L16.1869 15.4238C17.0853 15.1243 18.0634 15.4686 18.6145 16.278L19.8983 18.1639C20.539 19.1051 20.4239 20.403 19.6291 21.2009L18.777 22.0561C17.9291 22.9072 16.7181 23.216 15.5978 22.8665C12.953 22.0415 10.5218 19.5926 8.30302 15.5191C6.08114 11.44 5.29729 7.97851 5.95094 5.1358C6.22594 3.93945 7.0775 2.98685 8.18948 2.63164L9.31083 2.2733C10.3629 1.93841 11.4853 2.48112 11.9353 3.54257Z" fill="url(#paint0_linear_2715_1159)"/>
<defs>
<linearGradient id="paint0_linear_2715_1159" x1="19.8113" y1="23.644" x2="4.97321" y2="2.76226" gradientUnits="userSpaceOnUse">
<stop stop-color="#88CB1A"/>
<stop offset="1" stop-color="#F2FF5B"/>
</linearGradient>
</defs>
</svg>
