<svg width="97" height="98" viewBox="0 0 97 98" fill="none" xmlns="http://www.w3.org/2000/svg">
<path fill-rule="evenodd" clip-rule="evenodd" d="M48.5 0.0913086C21.7135 0.0913086 0 21.8048 0 48.5913C0 75.3779 21.7135 97.0913 48.5 97.0913C75.2865 97.0913 97 75.3779 97 48.5913C97 21.8048 75.2865 0.0913086 48.5 0.0913086ZM37.5698 31.6178C38.1473 31.6178 38.7277 31.7495 39.2642 32.0207L68.3897 46.731C69.5858 47.3337 70.3272 48.5139 70.3247 49.8098C70.3247 51.1056 69.5858 52.2813 68.3897 52.884L39.2642 67.5898C38.7301 67.8587 38.1473 67.9928 37.5698 67.9928C36.9222 67.9928 36.2783 67.824 35.7008 67.4902C34.6037 66.855 33.9498 65.7396 33.9498 64.511V35.0995C33.9498 33.8709 34.6037 32.7555 35.7008 32.1203C36.2783 31.7842 36.9246 31.6178 37.5698 31.6178Z" fill="url(#paint0_linear_2715_1201)"/>
<defs>
<linearGradient id="paint0_linear_2715_1201" x1="93.6722" y1="100.053" x2="35.3272" y2="-17.2431" gradientUnits="userSpaceOnUse">
<stop stop-color="#88CB1A"/>
<stop offset="1" stop-color="#F2FF5B"/>
</linearGradient>
</defs>
</svg>
