<svg width="0" height="0" class="hidden">

    <symbol viewBox="0 0 73 74" xmlns="http://www.w3.org/2000/svg" id="fact1">
      <path d="M26 20C24.125 20 22.5288 20.7571 21.5039 21.9102C20.479 23.0632 20 24.5417 20 26C20 27.4583 20.479 28.9368 21.5039 30.0898C22.5288 31.2429 24.125 32 26 32C27.875 32 29.4712 31.2429 30.4961 30.0898C31.521 28.9368 32 27.4583 32 26C32 24.5417 31.521 23.0632 30.4961 21.9102C29.4712 20.7571 27.875 20 26 20ZM48 20C46.125 20 44.5288 20.7571 43.5039 21.9102C42.479 23.0632 42 24.5417 42 26C42 27.4583 42.479 28.9368 43.5039 30.0898C44.5288 31.2429 46.125 32 48 32C49.875 32 51.4712 31.2429 52.4961 30.0898C53.521 28.9368 54 27.4583 54 26C54 24.5417 53.521 23.0632 52.4961 21.9102C51.4712 20.7571 49.875 20 48 20ZM26 23C27.125 23 27.7788 23.3679 28.2539 23.9023C28.729 24.4368 29 25.2083 29 26C29 26.7917 28.729 27.5632 28.2539 28.0977C27.7788 28.6321 27.125 29 26 29C24.875 29 24.2212 28.6321 23.7461 28.0977C23.271 27.5632 23 26.7917 23 26C23 25.2083 23.271 24.4368 23.7461 23.9023C24.2212 23.3679 24.875 23 26 23ZM48 23C49.125 23 49.7788 23.3679 50.2539 23.9023C50.729 24.4368 51 25.2083 51 26C51 26.7917 50.729 27.5632 50.2539 28.0977C49.7788 28.6321 49.125 29 48 29C46.875 29 46.2212 28.6321 45.7461 28.0977C45.271 27.5632 45 26.7917 45 26C45 25.2083 45.271 24.4368 45.7461 23.9023C46.2212 23.3679 46.875 23 48 23ZM37 30C35.125 30 33.5288 30.7571 32.5039 31.9102C31.479 33.0632 31 34.5417 31 36C31 37.4583 31.479 38.9368 32.5039 40.0898C33.5288 41.2429 35.125 42 37 42C38.875 42 40.4712 41.2429 41.4961 40.0898C42.521 38.9368 43 37.4583 43 36C43 34.5417 42.521 33.0632 41.4961 31.9102C40.4712 30.7571 38.875 30 37 30ZM37 33C38.125 33 38.7788 33.3679 39.2539 33.9023C39.729 34.4368 40 35.2083 40 36C40 36.7917 39.729 37.5632 39.2539 38.0977C38.7788 38.6321 38.125 39 37 39C35.875 39 35.2212 38.6321 34.7461 38.0977C34.271 37.5632 34 36.7917 34 36C34 35.2083 34.271 34.4368 34.7461 33.9023C35.2212 33.3679 35.875 33 37 33ZM20.5 34C18.57 34 17 35.57 17 37.5V40C17 43.36 20.95 46 26 46H26.2109C26.6609 44.39 27.8394 43.0797 29.3594 42.4297C28.4094 42.7797 27.26 43 26 43C22.57 43 20 41.42 20 40V37.5C20 37.22 20.22 37 20.5 37H29.0605C29.0205 36.67 29 36.34 29 36C29 35.31 29.09 34.64 29.25 34H20.5ZM44.75 34C44.91 34.64 45 35.31 45 36C45 36.34 44.9795 36.67 44.9395 37H53.5C53.78 37 54 37.22 54 37.5V40C54 41.42 51.43 43 48 43C46.74 43 45.5906 42.7797 44.6406 42.4297C46.1606 43.0797 47.3391 44.39 47.7891 46H48C53.05 46 57 43.36 57 40V37.5C57 35.57 55.43 34 53.5 34H44.75ZM31.5 44C29.585 44 28 45.585 28 47.5V50C28 51.9182 29.2799 53.4812 30.9258 54.4688C32.5716 55.4563 34.6858 56 37 56C39.3142 56 41.4284 55.4563 43.0742 54.4688C44.7201 53.4812 46 51.9182 46 50V47.5C46 45.585 44.415 44 42.5 44H31.5ZM31.5 47H42.5C42.795 47 43 47.205 43 47.5V50C43 50.5668 42.5999 51.2553 41.5312 51.8965C40.4626 52.5377 38.8278 53 37 53C35.1722 53 33.5374 52.5377 32.4688 51.8965C31.4001 51.2553 31 50.5668 31 50V47.5C31 47.205 31.205 47 31.5 47Z"/>
    </symbol>

    <symbol xmlns="http://www.w3.org/2000/svg" viewBox="0 0 48 48" id="fact2">
      <path d="M12.5 4C10.0325 4 8 6.0325 8 8.5V39.5C8 41.9675 10.0325 44 12.5 44H35.5C37.9675 44 40 41.9675 40 39.5V8.5C40 6.0325 37.9675 4 35.5 4H12.5ZM12.5 7H35.5C36.3465 7 37 7.6535 37 8.5V39.5C37 40.3465 36.3465 41 35.5 41H12.5C11.6535 41 11 40.3465 11 39.5V8.5C11 7.6535 11.6535 7 12.5 7ZM24 10C23.0717 10 22.1815 10.3687 21.5251 11.0251C20.8687 11.6815 20.5 12.5717 20.5 13.5C20.5 14.4283 20.8687 15.3185 21.5251 15.9749C22.1815 16.6313 23.0717 17 24 17C24.9283 17 25.8185 16.6313 26.4749 15.9749C27.1313 15.3185 27.5 14.4283 27.5 13.5C27.5 12.5717 27.1313 11.6815 26.4749 11.0251C25.8185 10.3687 24.9283 10 24 10ZM19.5 19C18.672 19 18 19.672 18 20.5V21.5C18 23.433 20.686 25 24 25C27.314 25 30 23.433 30 21.5V20.5C30 19.672 29.328 19 28.5 19H19.5ZM16.5 28C16.3012 27.9972 16.1039 28.0339 15.9194 28.108C15.735 28.1822 15.5671 28.2922 15.4255 28.4318C15.284 28.5713 15.1716 28.7376 15.0949 28.921C15.0181 29.1044 14.9786 29.3012 14.9786 29.5C14.9786 29.6988 15.0181 29.8956 15.0949 30.079C15.1716 30.2624 15.284 30.4287 15.4255 30.5682C15.5671 30.7078 15.735 30.8178 15.9194 30.892C16.1039 30.9661 16.3012 31.0028 16.5 31H31.5C31.6988 31.0028 31.8961 30.9661 32.0806 30.892C32.265 30.8178 32.4329 30.7078 32.5745 30.5682C32.716 30.4287 32.8284 30.2624 32.9051 30.079C32.9819 29.8956 33.0214 29.6988 33.0214 29.5C33.0214 29.3012 32.9819 29.1044 32.9051 28.921C32.8284 28.7376 32.716 28.5713 32.5745 28.4318C32.4329 28.2922 32.265 28.1822 32.0806 28.108C31.8961 28.0339 31.6988 27.9972 31.5 28H16.5ZM16.5 34C16.3012 33.9972 16.1039 34.0339 15.9194 34.108C15.735 34.1822 15.5671 34.2922 15.4255 34.4318C15.284 34.5713 15.1716 34.7376 15.0949 34.921C15.0181 35.1044 14.9786 35.3012 14.9786 35.5C14.9786 35.6988 15.0181 35.8956 15.0949 36.079C15.1716 36.2624 15.284 36.4287 15.4255 36.5682C15.5671 36.7078 15.735 36.8178 15.9194 36.892C16.1039 36.9661 16.3012 37.0028 16.5 37H27.5C27.6988 37.0028 27.8961 36.9661 28.0806 36.892C28.265 36.8178 28.4329 36.7078 28.5745 36.5682C28.716 36.4287 28.8284 36.2624 28.9051 36.079C28.9819 35.8956 29.0214 35.6988 29.0214 35.5C29.0214 35.3012 28.9819 35.1044 28.9051 34.921C28.8284 34.7376 28.716 34.5713 28.5745 34.4318C28.4329 34.2922 28.265 34.1822 28.0806 34.108C27.8961 34.0339 27.6988 33.9972 27.5 34H16.5Z"/>
    </symbol>

    <symbol xmlns="http://www.w3.org/2000/svg" viewBox="0 0 48 48" id="fact3">
      <path d="M17 2C11.4949 2 7 6.49492 7 12C7 17.5051 11.4949 22 17 22C22.5051 22 27 17.5051 27 12C27 6.49492 22.5051 2 17 2ZM17 5C20.8838 5 24 8.11624 24 12C24 15.8838 20.8838 19 17 19C13.1162 19 10 15.8838 10 12C10 8.11624 13.1162 5 17 5ZM6.22266 26C4.16966 26 2.5 27.7845 2.5 29.9785V31.5C2.5 34.781 4.19539 37.6323 7.27539 39.5273C9.86639 41.1223 13.32 42 17 42C20.131 42 23.3644 41.3321 25.9844 39.9531C25.3894 39.1541 24.9112 38.2665 24.5742 37.3105C22.4242 38.4495 19.667 39 17 39C11.461 39 5.5 36.653 5.5 31.5V29.9785C5.5 29.4475 5.83066 29 6.22266 29H25.3535C26.0275 27.839 26.9271 26.8294 27.9941 26.0234C27.9201 26.0194 27.8523 26 27.7773 26H6.22266ZM34 26C29.589 26 26 29.589 26 34C26 38.411 29.589 42 34 42C35.665 42 37.2102 41.4873 38.4922 40.6133L43.4395 45.5605C43.7325 45.8545 44.116 46 44.5 46C44.884 46 45.2675 45.8535 45.5605 45.5605C46.1455 44.9745 46.1455 44.0255 45.5605 43.4395L40.6152 38.4922C41.4882 37.2102 42 35.665 42 34C42 29.589 38.411 26 34 26ZM34 29C36.757 29 39 31.243 39 34C39 36.757 36.757 39 34 39C31.243 39 29 36.757 29 34C29 31.243 31.243 29 34 29Z"/>
    </symbol>

    <symbol xmlns="http://www.w3.org/2000/svg" viewBox="0 0 48 48" id="fact4">
      <path d="M24 6.00977C22.9685 6.00977 21.9373 6.23516 20.9726 6.68555L2.86519 15.1406C2.60651 15.2614 2.38765 15.4534 2.23431 15.6942C2.08097 15.935 1.99951 16.2145 1.99951 16.5C1.99951 16.7855 2.08097 17.065 2.23431 17.3058C2.38765 17.5466 2.60651 17.7386 2.86519 17.8594L10.0273 21.2031C10.0084 21.3009 9.99919 21.4004 9.99996 21.5V34.5293C9.99996 36.6484 11.2114 38.6215 13.1679 39.5156C16.7591 41.157 20.3117 42.0116 23.998 42C24.0006 42 24.0032 42 24.0058 42C24.06 42.0003 24.1141 41.9977 24.1679 41.9922C26.8353 41.9639 29.5769 41.4848 32.2324 40.5781C31.5424 39.8451 31.1062 38.8815 31.0312 37.8145C28.7022 38.5835 26.3111 38.992 23.9941 39C20.7692 39.0112 17.6923 38.2846 14.416 36.7871C13.5585 36.3952 13 35.5042 13 34.5293V22.5918L20.9726 26.3145C22.902 27.2152 25.0979 27.2152 27.0273 26.3145L34 23.0586V35.5039C33.5818 35.8192 33.2732 36.2579 33.1178 36.758C32.9624 37.2581 32.9679 37.7944 33.1336 38.2912C33.2994 38.788 33.617 39.2202 34.0415 39.5268C34.4661 39.8334 34.9762 39.9989 35.5 40C36.0242 39.9995 36.5349 39.8341 36.9601 39.5274C37.3852 39.2207 37.7031 38.7882 37.869 38.2909C38.0348 37.7936 38.0401 37.2568 37.8842 36.7563C37.7282 36.2558 37.4189 35.817 37 35.502V21.8359C37.0579 21.4616 36.972 21.0793 36.7597 20.7656C36.7364 20.7307 36.7117 20.6969 36.6855 20.6641C36.4908 20.4114 36.2205 20.2273 35.914 20.1387L35.9101 20.1367L25.1308 15.1387C24.9041 15.0295 24.6536 14.9791 24.4023 14.9922C24.0722 15.0092 23.7569 15.1348 23.5055 15.3494C23.2541 15.564 23.0807 15.8557 23.0121 16.1791C22.9435 16.5024 22.9836 16.8394 23.1262 17.1376C23.2688 17.4358 23.506 17.6785 23.8007 17.8281C23.8232 17.8398 23.846 17.8508 23.8691 17.8613L30.9804 21.1582L25.7578 23.5977C24.5771 24.1489 23.4228 24.1489 22.2421 23.5977L7.04488 16.5L22.2421 9.4043C23.4228 8.85308 24.5771 8.85308 25.7578 9.4043L40.955 16.5L36.9023 18.3926L36.9726 18.4258C36.9726 18.4258 36.9765 18.4257 36.9785 18.4277C36.9805 18.4277 36.9824 18.4297 36.9824 18.4297C36.9844 18.4297 36.9872 18.4316 36.9902 18.4336C37.7752 18.8026 38.3604 19.4262 38.6914 20.1602C38.7784 20.3552 38.8474 20.5595 38.8984 20.7695L45.1347 17.8574C45.3161 17.7733 45.4787 17.6538 45.6132 17.5059L45.6152 17.502C45.7396 17.363 45.8369 17.202 45.9023 17.0273C45.906 17.0174 45.9105 17.008 45.914 16.998C45.9766 16.8201 46.0051 16.6319 45.998 16.4434C45.9979 16.4407 45.9962 16.4382 45.9961 16.4355C45.9927 16.3402 45.9803 16.2453 45.9589 16.1523C45.9581 16.149 45.9559 16.1459 45.955 16.1426C45.9331 16.0534 45.903 15.9665 45.8652 15.8828C45.8626 15.8771 45.862 15.871 45.8593 15.8652C45.8564 15.859 45.8525 15.8538 45.8496 15.8477C45.8086 15.7618 45.7595 15.6801 45.7031 15.6035C45.7009 15.6005 45.6975 15.5987 45.6953 15.5957C45.6436 15.5271 45.5861 15.4631 45.5234 15.4043C45.5085 15.3903 45.4939 15.3766 45.4785 15.3633C45.4213 15.3145 45.3606 15.2701 45.2968 15.2305C45.2789 15.2192 45.2605 15.2097 45.2421 15.1992C45.2071 15.1782 45.1713 15.1587 45.1347 15.1406L27.0273 6.68555C26.0626 6.23516 25.0314 6.00977 24 6.00977Z"/>
    </symbol>

    <symbol xmlns="http://www.w3.org/2000/svg" viewBox="0 0 48 49" id="alg1">
      <path d="M9.5 4.95874C7.57 4.95874 6 6.52881 6 8.45889V18.4593C6 20.3894 7.57 21.9594 9.5 21.9594H13C13 20.8664 13.2995 19.8434 13.8125 18.9593H9.5C9.224 18.9593 9 18.7353 9 18.4593V8.45889C9 8.18287 9.224 7.95887 9.5 7.95887H19.5C19.776 7.95887 20 8.18287 20 8.45889V16.049C21.142 16.2421 22.173 16.7563 23 17.4983V8.45889C23 6.52881 21.43 4.95874 19.5 4.95874H9.5ZM28.5 4.95874C26.585 4.95874 25 6.54385 25 8.45889V18.4593C25 20.3743 26.585 21.9594 28.5 21.9594H38.5C40.415 21.9594 42 20.3743 42 18.4593V8.45889C42 6.54385 40.415 4.95874 38.5 4.95874H28.5ZM28.5 7.95887H38.5C38.795 7.95887 39 8.16383 39 8.45889V18.4593C39 18.7544 38.795 18.9593 38.5 18.9593H28.5C28.205 18.9593 28 18.7544 28 18.4593V8.45889C28 8.16383 28.205 7.95887 28.5 7.95887ZM17.4707 9.94528C17.0811 9.95663 16.7113 10.1191 16.4395 10.3984L13.5 13.338L12.5605 12.3985C12.4223 12.2545 12.2568 12.1396 12.0736 12.0604C11.8904 11.9812 11.6932 11.9394 11.4937 11.9374C11.2941 11.9354 11.0962 11.9732 10.9114 12.0486C10.7266 12.124 10.5588 12.2356 10.4177 12.3767C10.2766 12.5178 10.165 12.6857 10.0896 12.8705C10.0141 13.0552 9.97633 13.2532 9.97836 13.4528C9.98039 13.6523 10.0222 13.8495 10.1014 14.0327C10.1806 14.2159 10.2955 14.3815 10.4395 14.5197L12.4395 16.5198C12.7208 16.801 13.1022 16.959 13.5 16.959C13.8978 16.959 14.2792 16.801 14.5605 16.5198L18.5605 12.5196C18.7769 12.3088 18.9247 12.0377 18.9844 11.7415C19.0442 11.4454 19.0131 11.1382 18.8953 10.86C18.7776 10.5818 18.5786 10.3457 18.3244 10.1825C18.0702 10.0192 17.7726 9.93658 17.4707 9.94528ZM19 17.9593C16.8087 17.9593 15 19.7681 15 21.9594V30.7977C14.4928 31.4974 13.8908 32.3346 13.3262 33.2763C12.6628 34.3828 12 35.2974 12 36.712C12 38.3084 12.7371 39.6991 13.5859 40.97C14.4348 42.2409 15.4577 43.3834 16.3105 44.2573C16.3105 44.2579 16.3105 44.2586 16.3105 44.2592C17.6146 45.5946 19.497 46.1934 21.3301 45.8745L27.2969 44.8413C29.4264 44.4718 31.2092 43.0108 31.9961 40.9993C32.6496 39.3288 33.4235 37.3218 33.7559 36.1651C33.7559 36.1645 33.7559 36.1638 33.7559 36.1632C34.8059 32.5056 32.3633 28.8393 28.7695 27.8796C28.6104 27.8371 28.6604 27.8538 28.5996 27.8406C28.5388 27.8273 28.4595 27.8092 28.3594 27.7878C28.1592 27.7451 27.8833 27.6869 27.5566 27.6179C26.9034 27.4799 26.0469 27.3007 25.1953 27.1218C24.092 26.89 23.6348 26.7939 23 26.6608V21.9594C23 19.7681 21.1913 17.9593 19 17.9593ZM19 20.9594C19.5707 20.9594 20 21.3887 20 21.9594V27.8796C20.0004 28.2239 20.1192 28.5577 20.3365 28.8247C20.5538 29.0918 20.8563 29.2761 21.1934 29.3465C21.1934 29.3465 22.8762 29.6999 24.5781 30.0574C25.4291 30.2362 26.2845 30.416 26.9355 30.5536C27.2611 30.6223 27.5363 30.6796 27.7324 30.7215C27.8305 30.7425 27.909 30.7606 27.9629 30.7723C28.0168 30.784 28.137 30.8158 27.9961 30.7782C30.0943 31.3385 31.429 33.4003 30.873 35.337C30.639 36.151 29.8474 38.2604 29.2031 39.9075C28.796 40.9481 27.8816 41.6955 26.7832 41.8861L20.8164 42.9193C19.9475 43.0705 19.069 42.7881 18.457 42.1615C17.685 41.3703 16.7667 40.332 16.0801 39.3039C15.3932 38.2754 15 37.2497 15 36.712C15 36.8966 15.3201 35.784 15.8984 34.8194C16.4768 33.8547 17.2069 32.8233 17.707 32.1454C17.8973 31.8875 18 31.5753 18 31.2548V21.9594C18 21.3887 18.4293 20.9594 19 20.9594Z"/>
    </symbol>

    <symbol xmlns="http://www.w3.org/2000/svg" viewBox="0 0 48 49" id="alg2">
       <path  d="M6.78113 2.74658C6.48261 2.74665 6.1909 2.83579 5.94332 3.00259C5.69574 3.16939 5.50355 3.40627 5.39135 3.68291C5.27914 3.95956 5.25202 4.26339 5.31346 4.55553C5.37489 4.84767 5.52209 5.11485 5.73621 5.32286L7.15027 6.73698C7.28849 6.88095 7.45404 6.99588 7.63723 7.07506C7.82043 7.15424 8.01757 7.19607 8.21713 7.1981C8.41669 7.20013 8.61465 7.16232 8.79942 7.08688C8.98418 7.01144 9.15204 6.8999 9.29315 6.75877C9.43427 6.61765 9.54581 6.44979 9.62125 6.26502C9.69668 6.08024 9.73449 5.88228 9.73246 5.68271C9.73043 5.48314 9.6886 5.28598 9.60943 5.10278C9.53025 4.91958 9.41532 4.75402 9.27136 4.6158L7.8573 3.20168C7.71748 3.05769 7.5502 2.94322 7.36534 2.86504C7.18049 2.78687 6.98183 2.74659 6.78113 2.74658ZM41.1737 2.74854C40.7841 2.75989 40.4143 2.92241 40.1425 3.20168L38.7284 4.6158C38.5844 4.75402 38.4695 4.91958 38.3903 5.10278C38.3111 5.28598 38.2693 5.48314 38.2673 5.68271C38.2653 5.88228 38.3031 6.08025 38.3785 6.26502C38.4539 6.4498 38.5655 6.61766 38.7066 6.75878C38.8477 6.89991 39.0156 7.01145 39.2003 7.08689C39.3851 7.16233 39.5831 7.20014 39.7826 7.19811C39.9822 7.19608 40.1793 7.15425 40.3625 7.07507C40.5457 6.99589 40.7113 6.88095 40.8495 6.73698L42.2635 5.32286C42.4799 5.1121 42.6277 4.84091 42.6874 4.54479C42.7472 4.24868 42.7161 3.94142 42.5983 3.66324C42.4806 3.38506 42.2816 3.14892 42.0274 2.98571C41.7732 2.8225 41.4757 2.73984 41.1737 2.74854ZM23.9999 4.98105C16.2897 4.98328 9.99988 11.2526 9.99988 18.966C9.99988 22.9656 11.6913 26.5858 14.3886 29.1344C14.7058 29.434 14.9388 29.856 15.0468 30.3395L17.5136 41.4435C17.9691 43.4943 19.8055 44.9671 21.9061 44.9671H23.9999H26.0936C28.1945 44.9671 30.0304 43.4941 30.4862 41.4435L32.955 30.3395V30.3376C33.0619 29.8554 33.2936 29.4358 33.6112 29.1364V29.1344H33.6132C36.3092 26.5859 37.9999 22.9656 37.9999 18.966C37.9999 11.2526 31.7101 4.98328 23.9999 4.98105ZM23.9999 7.98117C30.0937 7.98294 34.9999 12.8748 34.9999 18.966C34.9999 22.1227 33.6745 24.947 31.5507 26.9546C30.7535 27.707 30.2501 28.676 30.0253 29.6891L28.8534 34.9667H19.1464L17.9745 29.6872C17.7484 28.6746 17.2459 27.7071 16.4491 26.9546C14.3244 24.947 12.9999 22.1227 12.9999 18.966C12.9999 12.8748 17.9061 7.98294 23.9999 7.98117ZM1.49988 15.9659C1.30111 15.9631 1.10377 15.9998 0.919315 16.0739C0.734862 16.148 0.566981 16.2581 0.425426 16.3977C0.283872 16.5372 0.171468 16.7035 0.094746 16.8869C0.0180244 17.0703 -0.0214844 17.2671 -0.0214844 17.4659C-0.0214844 17.6647 0.0180244 17.8616 0.094746 18.0449C0.171468 18.2283 0.283872 18.3947 0.425426 18.5342C0.566981 18.6738 0.734862 18.7838 0.919315 18.858C1.10377 18.9321 1.30111 18.9688 1.49988 18.966H4.49988C4.69865 18.9688 4.89599 18.9321 5.08044 18.858C5.2649 18.7838 5.43278 18.6738 5.57433 18.5342C5.71589 18.3947 5.82829 18.2283 5.90501 18.0449C5.98173 17.8616 6.02124 17.6647 6.02124 17.4659C6.02124 17.2671 5.98173 17.0703 5.90501 16.8869C5.82829 16.7035 5.71589 16.5372 5.57433 16.3977C5.43278 16.2581 5.2649 16.148 5.08044 16.0739C4.89599 15.9998 4.69865 15.9631 4.49988 15.9659H1.49988ZM43.4999 15.9659C43.3011 15.9631 43.1038 15.9998 42.9193 16.0739C42.7349 16.148 42.567 16.2581 42.4254 16.3977C42.2839 16.5372 42.1715 16.7035 42.0947 16.8869C42.018 17.0703 41.9785 17.2671 41.9785 17.4659C41.9785 17.6647 42.018 17.8616 42.0947 18.0449C42.1715 18.2283 42.2839 18.3947 42.4254 18.5342C42.567 18.6738 42.7349 18.7838 42.9193 18.858C43.1038 18.9321 43.3011 18.9688 43.4999 18.966H46.4999C46.6986 18.9688 46.896 18.9321 47.0804 18.858C47.2649 18.7838 47.4328 18.6738 47.5743 18.5342C47.7159 18.3947 47.8283 18.2283 47.905 18.0449C47.9817 17.8616 48.0212 17.6647 48.0212 17.4659C48.0212 17.2671 47.9817 17.0703 47.905 16.8869C47.8283 16.7035 47.7159 16.5372 47.5743 16.3977C47.4328 16.2581 47.2649 16.148 47.0804 16.0739C46.896 15.9998 46.6986 15.9631 46.4999 15.9659H43.4999ZM39.7733 27.7398C39.4748 27.7399 39.1831 27.829 38.9355 27.9958C38.6879 28.1626 38.4957 28.3995 38.3835 28.6761C38.2713 28.9528 38.2442 29.2566 38.3056 29.5488C38.3671 29.8409 38.5143 30.1081 38.7284 30.3161L40.1425 31.7302C40.2807 31.8742 40.4462 31.9891 40.6294 32.0683C40.8126 32.1475 41.0098 32.1893 41.2093 32.1913C41.4089 32.1933 41.6068 32.1555 41.7916 32.0801C41.9764 32.0047 42.1442 31.8931 42.2853 31.752C42.4265 31.6109 42.538 31.443 42.6134 31.2582C42.6889 31.0735 42.7267 30.8755 42.7246 30.6759C42.7226 30.4764 42.6808 30.2792 42.6016 30.096C42.5224 29.9128 42.4075 29.7473 42.2635 29.609L40.8495 28.1949C40.7097 28.0509 40.5424 27.9364 40.3575 27.8583C40.1727 27.7801 39.974 27.7398 39.7733 27.7398ZM8.18152 27.7418C7.79196 27.7531 7.42211 27.9156 7.15027 28.1949L5.73621 29.609C5.59225 29.7473 5.47732 29.9128 5.39814 30.096C5.31897 30.2792 5.27714 30.4764 5.27511 30.6759C5.27309 30.8755 5.31089 31.0735 5.38633 31.2582C5.46176 31.443 5.5733 31.6109 5.71442 31.752C5.85554 31.8931 6.02339 32.0047 6.20816 32.0801C6.39292 32.1555 6.59088 32.1934 6.79044 32.1913C6.99 32.1893 7.18715 32.1475 7.37034 32.0683C7.55353 31.9891 7.71908 31.8742 7.8573 31.7302L9.27136 30.3161C9.48776 30.1053 9.6355 29.8341 9.69523 29.538C9.75497 29.2419 9.72392 28.9346 9.60615 28.6565C9.48838 28.3783 9.28938 28.1421 9.03519 27.9789C8.781 27.8157 8.48347 27.7331 8.18152 27.7418ZM19.8143 37.9668H28.1854L27.5585 40.7931C27.4043 41.4866 26.8048 41.967 26.0936 41.967H23.9999H21.9061C21.1928 41.967 20.5957 41.4884 20.4413 40.7931L19.8143 37.9668Z"></path>
    </symbol>

    <symbol xmlns="http://www.w3.org/2000/svg" viewBox="0 0 48 49" id="alg3">
      <path d="M20 5.97559C11.1814 5.97559 4 13.1552 4 21.9743C4 24.5429 4.67686 26.9415 5.75586 29.0937L4.08594 35.0784C3.62851 36.7185 5.25809 38.3497 6.89844 37.8929L12.8867 36.2229C13.5108 36.5356 14.1586 36.809 14.8223 37.0472C17.7071 41.2314 22.5431 43.9752 28 43.9752C30.5664 43.9752 32.9629 43.3004 35.1133 42.2232L41.1016 43.8932C42.7419 44.3499 44.3715 42.7187 43.9141 41.0786L42.2441 35.094C43.3231 32.9418 44 30.5432 44 27.9745C44 20.9369 39.437 14.9492 33.0977 12.8177C30.2005 8.68853 25.4128 5.97559 20 5.97559ZM20 8.97571C27.1974 8.97571 33 14.7775 33 21.9763C33 29.1739 27.1974 34.9748 20 34.9748C17.7031 34.9748 15.5575 34.3779 13.6855 33.3341C13.3404 33.1418 12.9334 33.0934 12.5527 33.1994L7.31641 34.6604L8.7793 29.4277C8.88584 29.0465 8.8374 28.6386 8.64453 28.2929C7.59887 26.4187 7 24.2731 7 21.9743C7 14.7767 12.8026 8.97571 20 8.97571ZM35.2734 17.2085C38.7243 19.5416 41 23.4817 41 27.9745C41 30.2733 40.4011 32.419 39.3555 34.2932C39.1626 34.6388 39.1142 35.0467 39.2207 35.428L40.6836 40.6606L35.4473 39.1996C35.0666 39.0936 34.6596 39.142 34.3145 39.3344C32.4425 40.3781 30.2969 40.9751 28 40.9751C24.8373 40.9751 21.9619 39.8342 19.7129 37.9652C19.8088 37.9671 19.9036 37.975 20 37.975C28.8186 37.975 36 30.7953 36 21.9763C36 20.3166 35.745 18.7151 35.2734 17.2085Z"/>
    </symbol>

    <symbol xmlns="http://www.w3.org/2000/svg" viewBox="0 0 48 49" id="alg4">
      <path d="M9.47644 5.96063C9.07896 5.96684 8.70019 6.13057 8.42334 6.41586C8.14648 6.70115 7.99418 7.08467 7.99988 7.48218V8.98224H6.49988C6.30111 8.97943 6.10377 9.01615 5.91931 9.09028C5.73486 9.1644 5.56698 9.27445 5.42543 9.41402C5.28387 9.55359 5.17147 9.71991 5.09475 9.9033C5.01802 10.0867 4.97852 10.2835 4.97852 10.4823C4.97852 10.6811 5.01802 10.8779 5.09475 11.0613C5.17147 11.2447 5.28387 11.411 5.42543 11.5506C5.56698 11.6902 5.73486 11.8002 5.91931 11.8743C6.10377 11.9485 6.30111 11.9852 6.49988 11.9824H7.99988V13.4824C7.99707 13.6812 8.03379 13.8786 8.10791 14.063C8.18203 14.2475 8.29207 14.4154 8.43164 14.5569C8.57121 14.6985 8.73751 14.8109 8.9209 14.8876C9.10429 14.9643 9.30109 15.0039 9.49988 15.0039C9.69867 15.0039 9.89547 14.9643 10.0789 14.8876C10.2622 14.8109 10.4286 14.6985 10.5681 14.5569C10.7077 14.4154 10.8177 14.2475 10.8918 14.063C10.966 13.8786 11.0027 13.6812 10.9999 13.4824V11.9824H12.4999C12.6986 11.9852 12.896 11.9485 13.0804 11.8743C13.2649 11.8002 13.4328 11.6902 13.5743 11.5506C13.7159 11.411 13.8283 11.2447 13.905 11.0613C13.9817 10.8779 14.0212 10.6811 14.0212 10.4823C14.0212 10.2835 13.9817 10.0867 13.905 9.9033C13.8283 9.71991 13.7159 9.55359 13.5743 9.41402C13.4328 9.27445 13.2649 9.1644 13.0804 9.09028C12.896 9.01615 12.6986 8.97943 12.4999 8.98224H10.9999V7.48218C11.0028 7.28141 10.9653 7.0821 10.8897 6.89606C10.8142 6.71003 10.702 6.54106 10.56 6.39917C10.4179 6.25728 10.2488 6.14535 10.0627 6.07002C9.87655 5.99469 9.6772 5.95749 9.47644 5.96063ZM33.4764 9.9608C33.079 9.96701 32.7002 10.1307 32.4233 10.416C32.1465 10.7013 31.9942 11.0848 31.9999 11.4823V12.9824H30.4999C30.3011 12.9796 30.1038 13.0163 29.9193 13.0904C29.7349 13.1646 29.567 13.2746 29.4254 13.4142C29.2839 13.5538 29.1715 13.7201 29.0947 13.9035C29.018 14.0869 28.9785 14.2837 28.9785 14.4825C28.9785 14.6813 29.018 14.8781 29.0947 15.0615C29.1715 15.2449 29.2839 15.4112 29.4254 15.5508C29.567 15.6903 29.7349 15.8004 29.9193 15.8745C30.1038 15.9486 30.3011 15.9853 30.4999 15.9825H31.9999V17.4826C31.9971 17.6814 32.0338 17.8787 32.1079 18.0632C32.182 18.2476 32.2921 18.4155 32.4316 18.5571C32.5712 18.6987 32.7375 18.8111 32.9209 18.8878C33.1043 18.9645 33.3011 19.004 33.4999 19.004C33.6987 19.004 33.8955 18.9645 34.0789 18.8878C34.2622 18.8111 34.4286 18.6987 34.5681 18.5571C34.7077 18.4155 34.8177 18.2476 34.8918 18.0632C34.966 17.8787 35.0027 17.6814 34.9999 17.4826V15.9825H36.4999C36.6986 15.9853 36.896 15.9486 37.0804 15.8745C37.2649 15.8004 37.4328 15.6903 37.5743 15.5508C37.7159 15.4112 37.8283 15.2449 37.905 15.0615C37.9817 14.8781 38.0212 14.6813 38.0212 14.4825C38.0212 14.2837 37.9817 14.0869 37.905 13.9035C37.8283 13.7201 37.7159 13.5538 37.5743 13.4142C37.4328 13.2746 37.2649 13.1646 37.0804 13.0904C36.896 13.0163 36.6986 12.9796 36.4999 12.9824H34.9999V11.4823C35.0028 11.2816 34.9653 11.0823 34.8897 10.8962C34.8142 10.7102 34.702 10.5412 34.56 10.3993C34.4179 10.2574 34.2488 10.1455 34.0627 10.0702C33.8766 9.99486 33.6772 9.95766 33.4764 9.9608ZM17.5409 15.0313C16.386 15.0313 15.2297 15.4675 14.3573 16.34C12.6124 18.0849 12.6124 20.9605 14.3573 22.7055L16.6874 25.0337L16.6932 25.0415C16.7879 25.1732 16.9034 25.2886 17.035 25.3833L35.2694 43.6165C37.0145 45.3602 39.8876 45.3602 41.6327 43.6165C43.3776 41.8716 43.3776 38.9959 41.6327 37.251L23.3553 18.9748C23.3528 18.9716 23.3502 18.9683 23.3475 18.9651C23.2533 18.8343 23.1385 18.7195 23.0077 18.6252L20.7225 16.34C19.8501 15.4675 18.6958 15.0313 17.5409 15.0313ZM17.5409 18.0139C17.9215 18.0139 18.3019 18.1635 18.6014 18.4631L20.0077 19.8694L17.9139 22.0179L16.4803 20.5843C15.8812 19.9851 15.8812 19.0623 16.4803 18.4631C16.7799 18.1635 17.1603 18.0139 17.5409 18.0139ZM22.1288 21.9906L39.5116 39.3741C40.1107 39.9733 40.1107 40.8962 39.5116 41.4953C38.9132 42.0933 37.9894 42.0923 37.3905 41.4953H37.3885L20.035 24.1391L22.1288 21.9906ZM13.4764 30.9617C13.079 30.9679 12.7002 31.1316 12.4233 31.4169C12.1465 31.7022 11.9942 32.0857 11.9999 32.4832V33.9833H10.4999C10.3011 33.9805 10.1038 34.0172 9.91931 34.0913C9.73486 34.1654 9.56698 34.2755 9.42543 34.4151C9.28387 34.5546 9.17147 34.7209 9.09475 34.9043C9.01802 35.0877 8.97852 35.2845 8.97852 35.4833C8.97852 35.6821 9.01802 35.879 9.09475 36.0623C9.17147 36.2457 9.28387 36.4121 9.42543 36.5516C9.56698 36.6912 9.73486 36.8012 9.91931 36.8754C10.1038 36.9495 10.3011 36.9862 10.4999 36.9834H11.9999V38.4835C11.9971 38.6822 12.0338 38.8796 12.1079 39.0641C12.182 39.2485 12.2921 39.4164 12.4316 39.558C12.5712 39.6995 12.7375 39.8119 12.9209 39.8887C13.1043 39.9654 13.3011 40.0049 13.4999 40.0049C13.6987 40.0049 13.8955 39.9654 14.0789 39.8887C14.2622 39.8119 14.4286 39.6995 14.5681 39.558C14.7077 39.4164 14.8177 39.2485 14.8918 39.0641C14.966 38.8796 15.0027 38.6822 14.9999 38.4835V36.9834H16.4999C16.6986 36.9862 16.896 36.9495 17.0804 36.8754C17.2649 36.8012 17.4328 36.6912 17.5743 36.5516C17.7159 36.4121 17.8283 36.2457 17.905 36.0623C17.9817 35.879 18.0212 35.6821 18.0212 35.4833C18.0212 35.2845 17.9817 35.0877 17.905 34.9043C17.8283 34.7209 17.7159 34.5546 17.5743 34.4151C17.4328 34.2755 17.2649 34.1654 17.0804 34.0913C16.896 34.0172 16.6986 33.9805 16.4999 33.9833H14.9999V32.4832C15.0028 32.2824 14.9653 32.0831 14.8897 31.8971C14.8142 31.7111 14.702 31.5421 14.56 31.4002C14.4179 31.2583 14.2488 31.1464 14.0627 31.0711C13.8766 30.9957 13.6772 30.9585 13.4764 30.9617Z"/>
    </symbol>

    <symbol xmlns="http://www.w3.org/2000/svg" viewBox="0 0 48 49" id="alg5">
      <path d="M11.498 2.98853C6.82472 2.98974 2.99805 6.80279 2.99805 11.4791C2.99805 13.9049 4.02823 16.1089 5.66406 17.6552C5.73688 17.7244 5.80597 17.8405 5.83984 17.9931L5.8457 18.0126L7.22266 23.4991C7.54438 24.946 8.84413 25.9914 10.3262 25.9914H12.6719C14.1539 25.9914 15.4537 24.946 15.7754 23.4991L15.7676 23.5402L17.1543 18.0126L17.1582 17.9931C17.192 17.8408 17.2614 17.7245 17.334 17.6552L17.3359 17.6532C18.9713 16.1076 20 13.9039 20 11.4791C19.9988 6.803 16.1733 2.98973 11.5 2.98853H11.498ZM21.5 3.98857C20.658 3.98857 19.8364 4.06698 19.0234 4.17998C19.8264 5.00602 20.4873 5.96399 20.9863 7.01604C21.1583 7.01004 21.327 6.98869 21.5 6.98869C29.522 6.98869 36.1396 13.2191 36.8906 21.4815C36.9176 21.7745 37.0308 22.0532 37.2148 22.2843L42.002 28.2747L38.0059 29.6732C37.4039 29.8852 37 30.4513 37 31.0893V37.3298C37 37.9768 36.5886 38.5477 35.9746 38.7517L30.3945 40.6112C28.9625 41.0892 28 42.4236 28 43.9316V44.4903C28 45.3183 28.672 45.9903 29.5 45.9903C30.328 45.9903 31 45.3183 31 44.4903V43.9316C31 43.7156 31.1388 43.526 31.3438 43.457L36.9238 41.5976C38.7648 40.9855 40 39.2709 40 37.3298V32.1538L42.9922 31.1069C43.9102 30.7849 44.6177 30.035 44.8867 29.099C45.1547 28.1649 44.9537 27.1538 44.3457 26.3938L39.832 20.7529C38.739 11.1645 30.936 3.98857 21.5 3.98857ZM11.498 5.98865H11.5C14.5557 5.9905 16.9992 8.42752 17 11.4811C16.9994 13.0627 16.3383 14.4695 15.2754 15.4734C14.7246 15.9943 14.3824 16.6579 14.2305 17.3426L14.2383 17.3016L13.3125 20.9893H9.68555L8.76953 17.3426C8.61756 16.6579 8.27543 15.9943 7.72461 15.4734C6.66044 14.4675 5.99805 13.0615 5.99805 11.4791C5.99805 8.42578 8.44231 5.9905 11.498 5.98865ZM3.58203 18.3505C3.21503 19.8386 3 21.3863 3 22.9894C3 28.2606 5.16822 33.3403 8.94922 36.9255C10.2712 38.1795 11 39.7908 11 41.4589V44.4903C11 45.3183 11.672 45.9903 12.5 45.9903C13.328 45.9903 14 45.3183 14 44.4903V41.4589C14 38.9598 12.9387 36.5767 11.0137 34.7496C8.56867 32.4315 6.93378 29.366 6.30078 26.0559C5.81578 25.4519 5.45048 24.7397 5.27148 23.9367L3.98242 18.8036C3.84142 18.6586 3.71403 18.5025 3.58203 18.3505Z"/>
    </symbol>

    <symbol xmlns="http://www.w3.org/2000/svg" viewBox="0 0 48 48" id="alg6">
      <path d="M19.0058 2.96158C17.7566 2.94569 16.2979 3.18356 15.0957 4.2546C13.8617 5.35465 13.1813 7.05813 13.0293 9.44623C10.9043 10.2503 6.2048 12.458 4.5898 16.7122C3.5178 19.5363 3.99287 22.6502 6.00387 25.9723C5.68287 27.0023 5.49605 28.185 5.49605 29.531C5.49605 35.9903 9.92141 38.873 13.0644 39.76C13.6724 44.9752 18.2014 45.0157 19.9824 45.0317H20.0488C21.6298 45.0317 23.0236 44.5163 24.0156 43.5883L24 39.9963C24 39.9963 22.5007 42.0316 20.0097 42.0316C17.1787 42.0316 15.9941 41.5135 15.9941 38.5314C15.9941 37.7854 15.4382 37.151 14.6992 37.045C14.4462 37.009 8.4941 36.0813 8.4941 29.531C8.4941 25.7569 10.3155 23.9081 12.0195 23.4351C12.3405 23.3461 12.6606 23.3023 12.9746 23.3023C14.2516 23.3023 15.436 24.0183 16.207 25.3024C16.633 26.0124 17.5556 26.2421 18.2656 25.816C18.9756 25.39 19.2053 24.4694 18.7793 23.7593C17.1193 20.9922 14.1527 19.7313 11.2187 20.5443C10.0407 20.8704 8.77338 21.6061 7.73238 22.8062C6.94038 20.9591 6.82463 19.2755 7.38863 17.7845C8.91363 13.7463 14.8482 11.9887 14.9062 11.9717C15.5502 11.7867 15.9941 11.2003 15.9941 10.5303C15.9941 8.52817 16.3728 7.132 17.0898 6.49298C17.6318 6.01096 18.4723 5.86229 19.8203 6.0203C21.1113 6.16931 22.4941 7.12169 22.4941 8.29774V34.0781C22.5161 33.9831 22.5413 33.8889 22.5683 33.7949C22.8113 31.0308 23.8752 28.5035 25.5332 26.4704V8.29774C25.5332 7.12069 26.915 6.16931 28.205 6.0203C28.547 5.9803 28.8576 5.96171 29.1386 5.96171C29.9616 5.96171 30.5335 6.13296 30.9375 6.49298C31.6545 7.132 32.0332 8.52817 32.0332 10.5303C32.0332 11.1983 32.4781 11.7867 33.1191 11.9717C33.1791 11.9897 39.1126 13.7463 40.6386 17.7845C41.1476 19.1315 41.0941 20.6387 40.4961 22.2788C41.4491 22.6158 42.3523 23.0545 43.1933 23.5855C44.1523 21.1544 44.2533 18.8482 43.4433 16.7122C41.8283 12.458 37.1289 10.2503 35.0039 9.44623C34.8519 7.05713 34.1695 5.35365 32.9355 4.2546C31.3325 2.82654 29.2742 2.8787 27.8632 3.03971C26.4622 3.20272 25.0396 3.86826 24.0156 4.8933C22.9916 3.86826 21.5689 3.20272 20.1679 3.03971C19.8152 2.99946 19.4222 2.96688 19.0058 2.96158ZM19.0507 12.0108C18.8162 12.0015 18.5827 12.0473 18.3691 12.1447C18.1555 12.242 17.9677 12.3882 17.8208 12.5713C17.674 12.7545 17.5722 12.9695 17.5235 13.1992C17.4749 13.4289 17.4809 13.6667 17.541 13.8937C17.541 13.8937 17.6494 14.5161 17.4668 15.0031C17.2842 15.4901 17.0961 16.0305 14.9961 16.0305C14.7973 16.0277 14.5999 16.0644 14.4155 16.1385C14.231 16.2126 14.0632 16.3227 13.9216 16.4623C13.78 16.6018 13.6676 16.7681 13.5909 16.9515C13.5142 17.1349 13.4747 17.3317 13.4747 17.5305C13.4747 17.7293 13.5142 17.9262 13.5909 18.1095C13.6676 18.2929 13.78 18.4593 13.9216 18.5988C14.0632 18.7384 14.231 18.8484 14.4155 18.9226C14.5999 18.9967 14.7973 19.0334 14.9961 19.0306C17.8961 19.0306 19.708 17.5709 20.2753 16.0578C20.8427 14.5447 20.4511 13.1671 20.4511 13.1671C20.3762 12.8478 20.1987 12.5618 19.9458 12.3529C19.6929 12.1441 19.3785 12.0239 19.0507 12.0108ZM29.0859 12.0108C28.7401 12.0003 28.4012 12.1097 28.1268 12.3204C27.8524 12.5311 27.6592 12.8302 27.58 13.1671C27.58 13.1671 27.1884 14.5447 27.7558 16.0578C28.3232 17.5709 30.1351 19.0306 33.0351 19.0306C33.2339 19.0334 33.4312 18.9967 33.6157 18.9226C33.8001 18.8484 33.968 18.7384 34.1096 18.5988C34.2511 18.4593 34.3635 18.2929 34.4402 18.1095C34.517 17.9262 34.5565 17.7293 34.5565 17.5305C34.5565 17.3317 34.517 17.1349 34.4402 16.9515C34.3635 16.7681 34.2511 16.6018 34.1096 16.4623C33.968 16.3227 33.8001 16.2126 33.6157 16.1385C33.4312 16.0644 33.2339 16.0277 33.0351 16.0305C30.9351 16.0305 30.749 15.4901 30.5664 15.0031C30.3838 14.5161 30.4921 13.8937 30.4921 13.8937C30.5499 13.6752 30.5575 13.4465 30.5145 13.2247C30.4715 13.0029 30.3789 12.7937 30.2437 12.6126C30.1085 12.4316 29.9341 12.2834 29.7337 12.1792C29.5332 12.075 29.3117 12.0174 29.0859 12.0108ZM36 23.9957C35.413 23.9957 34.8383 24.0452 34.2773 24.1402L33.9316 25.5719C33.3946 27.797 31.1051 29.1195 28.9101 28.4705L27.705 28.113C26.981 29.0461 26.401 30.1067 26 31.2538L26.8945 32.1132C28.5295 33.6872 28.5295 36.305 26.8945 37.8791L26 38.7385C26.401 39.8855 26.98 40.9452 27.705 41.8792L28.9101 41.5218C31.1051 40.8728 33.3946 42.1952 33.9316 44.4203L34.2773 45.852C34.8383 45.947 35.414 45.9966 36 45.9966C36.587 45.9966 37.1616 45.947 37.7226 45.852L38.0683 44.4203C38.6053 42.1952 40.8948 40.8728 43.0898 41.5218L44.2949 41.8792C45.0189 40.9462 45.599 39.8855 46 38.7385L45.1054 37.8791C43.4704 36.306 43.4704 33.6862 45.1054 32.1132L46 31.2538C45.599 30.1067 45.0199 29.0471 44.2949 28.113L43.0898 28.4705C40.8948 29.1195 38.6053 27.797 38.0683 25.5719L37.7226 24.1402C37.1616 24.0452 36.587 23.9957 36 23.9957ZM14.0566 28.9685C13.49 28.9736 13.1152 29.0759 13.1152 29.0759C12.9215 29.1213 12.7388 29.2048 12.5777 29.3214C12.4166 29.4381 12.2803 29.5856 12.1767 29.7554C12.0731 29.9253 12.0044 30.114 11.9744 30.3106C11.9445 30.5073 11.9539 30.7079 12.0022 30.9009C12.0505 31.0939 12.1367 31.2753 12.2558 31.4346C12.3749 31.594 12.5244 31.7281 12.6958 31.8291C12.8672 31.93 13.0569 31.996 13.254 32.0229C13.451 32.0499 13.6515 32.0374 13.8437 31.9862C13.8437 31.9862 14.3452 31.8913 14.8086 32.1229C15.2719 32.3546 15.9804 32.8645 15.9804 35.5313C15.9776 35.7301 16.0143 35.9274 16.0885 36.1119C16.1626 36.2963 16.2726 36.4642 16.4122 36.6058C16.5518 36.7474 16.7181 36.8598 16.9014 36.9365C17.0848 37.0132 17.2816 37.0527 17.4804 37.0527C17.6792 37.0527 17.876 37.0132 18.0594 36.9365C18.2428 36.8598 18.4091 36.7474 18.5487 36.6058C18.6882 36.4642 18.7983 36.2963 18.8724 36.1119C18.9465 35.9274 18.9832 35.7301 18.9804 35.5313C18.9804 32.1978 17.687 30.2076 16.1503 29.4392C15.382 29.0551 14.6232 28.9634 14.0566 28.9685ZM36 31.996C37.657 31.996 39 33.339 39 34.9961C39 36.6532 37.657 37.9962 36 37.9962C34.343 37.9962 33 36.6532 33 34.9961C33 33.339 34.343 31.996 36 31.996Z"/>
    </symbol>

    <symbol xmlns="http://www.w3.org/2000/svg" width="25" height="26" viewBox="0 0 25 26" fill="none">
      <path d="M11.9353 3.54257L12.8306 5.65455C13.2207 6.57487 13.0046 7.65716 12.2952 8.33007L10.6223 9.91757C10.4337 10.0967 10.3358 10.3566 10.378 10.6129C10.5395 11.5926 10.8973 12.5587 11.4515 13.5118C12.0046 14.4629 12.678 15.2723 13.4723 15.9394C13.6827 16.116 13.9749 16.1618 14.2353 16.0749L16.1869 15.4238C17.0853 15.1243 18.0634 15.4686 18.6145 16.278L19.8983 18.1639C20.539 19.1051 20.4239 20.403 19.6291 21.2009L18.777 22.0561C17.9291 22.9072 16.7181 23.216 15.5978 22.8665C12.953 22.0415 10.5218 19.5926 8.30302 15.5191C6.08114 11.44 5.29729 7.97851 5.95094 5.1358C6.22594 3.93945 7.0775 2.98685 8.18948 2.63164L9.31083 2.2733C10.3629 1.93841 11.4853 2.48112 11.9353 3.54257Z" fill="url(#paint0_linear_2715_1159)"/>
      <defs>
        <linearGradient id="paint0_linear_2715_1159" x1="19.8113" y1="23.644" x2="4.97321" y2="2.76226" gradientUnits="userSpaceOnUse">
          <stop stop-color="#88CB1A"/>
          <stop offset="1" stop-color="#F2FF5B"/>
        </linearGradient>
      </defs>
    </symbol>
   

</svg>